solid pixel
 facet normal 0 0 -1
  outer loop
   vertex 100 100 0 
   vertex 125.88190451025207 96.59258262890683 0 
   vertex 150 86.60254037844388 0 
  endloop 
 endfacet 
 facet normal 0 0 -1
  outer loop
   vertex 100 100 0 
   vertex 150 86.60254037844388 0 
   vertex 170.71067811865476 70.71067811865476 0 
  endloop 
 endfacet 
 facet normal 0 0 -1
  outer loop
   vertex 100 100 0 
   vertex 170.71067811865476 70.71067811865476 0 
   vertex 186.60254037844385 50.000000000000014 0 
  endloop 
 endfacet 
 facet normal 0 0 -1
  outer loop
   vertex 100 100 0 
   vertex 186.60254037844385 50.000000000000014 0 
   vertex 196.59258262890683 25.881904510252095 0 
  endloop 
 endfacet 
 facet normal 0 0 -1
  outer loop
   vertex 100 100 0 
   vertex 196.59258262890683 25.881904510252095 0 
   vertex 200 6.123233995736766e-15 0 
  endloop 
 endfacet 
 facet normal 0 0 -1
  outer loop
   vertex 100 100 0 
   vertex 200 6.123233995736766e-15 0 
   vertex 196.59258262890683 -25.881904510252042 0 
  endloop 
 endfacet 
 facet normal 0 0 -1
  outer loop
   vertex 100 100 0 
   vertex 196.59258262890683 -25.881904510252042 0 
   vertex 186.60254037844388 -49.99999999999998 0 
  endloop 
 endfacet 
 facet normal 0 0 -1
  outer loop
   vertex 100 100 0 
   vertex 186.60254037844388 -49.99999999999998 0 
   vertex 170.71067811865476 -70.71067811865474 0 
  endloop 
 endfacet 
 facet normal 0 0 -1
  outer loop
   vertex 100 100 0 
   vertex 170.71067811865476 -70.71067811865474 0 
   vertex 150.00000000000003 -86.60254037844385 0 
  endloop 
 endfacet 
 facet normal 0 0 -1
  outer loop
   vertex 100 100 0 
   vertex 150.00000000000003 -86.60254037844385 0 
   vertex 125.8819045102521 -96.59258262890683 0 
  endloop 
 endfacet 
 facet normal 0 0 -1
  outer loop
   vertex 100 100 0 
   vertex 125.8819045102521 -96.59258262890683 0 
   vertex 100.00000000000001 -100 0 
  endloop 
 endfacet 
 facet normal 0 0 -1
  outer loop
   vertex 100 100 0 
   vertex 100.00000000000001 -100 0 
   vertex 74.11809548974796 -96.59258262890684 0 
  endloop 
 endfacet 
 facet normal 0 0 -1
  outer loop
   vertex 100 100 0 
   vertex 74.11809548974796 -96.59258262890684 0 
   vertex 50.000000000000064 -86.6025403784439 0 
  endloop 
 endfacet 
 facet normal 0 0 -1
  outer loop
   vertex 100 100 0 
   vertex 50.000000000000064 -86.6025403784439 0 
   vertex 29.28932188134526 -70.71067811865477 0 
  endloop 
 endfacet 
 facet normal 0 0 -1
  outer loop
   vertex 100 100 0 
   vertex 29.28932188134526 -70.71067811865477 0 
   vertex 13.397459621556166 -50.00000000000004 0 
  endloop 
 endfacet 
 facet normal 0 0 -1
  outer loop
   vertex 100 100 0 
   vertex 13.397459621556166 -50.00000000000004 0 
   vertex 3.4074173710931888 -25.881904510252152 0 
  endloop 
 endfacet 
 facet normal 0 0 -1
  outer loop
   vertex 100 100 0 
   vertex 3.4074173710931888 -25.881904510252152 0 
   vertex 0 -1.8369701987210297e-14 0 
  endloop 
 endfacet 
 facet normal 0 0 -1
  outer loop
   vertex 100 100 0 
   vertex 0 -1.8369701987210297e-14 0 
   vertex 3.4074173710931603 25.881904510252028 0 
  endloop 
 endfacet 
 facet normal 0 0 -1
  outer loop
   vertex 100 100 0 
   vertex 3.4074173710931603 25.881904510252028 0 
   vertex 13.397459621556095 49.999999999999936 0 
  endloop 
 endfacet 
 facet normal 0 0 -1
  outer loop
   vertex 100 100 0 
   vertex 13.397459621556095 49.999999999999936 0 
   vertex 29.28932188134523 70.71067811865474 0 
  endloop 
 endfacet 
 facet normal 0 0 -1
  outer loop
   vertex 100 100 0 
   vertex 29.28932188134523 70.71067811865474 0 
   vertex 49.99999999999996 86.60254037844383 0 
  endloop 
 endfacet 
 facet normal 0 0 -1
  outer loop
   vertex 100 100 0 
   vertex 49.99999999999996 86.60254037844383 0 
   vertex 74.11809548974784 96.59258262890681 0 
  endloop 
 endfacet 
 facet normal -0.11271706685404947 0.8561711241309568 -0.5042478250266963
  outer loop
   vertex 68.41003445808387 125.28894327685569 50 
   vertex 94.29193896833603 128.6963606479489 50 
   vertex 100 100 0 
  endloop 
 endfacet 
 facet normal 0.1141701169761297 0.8672081355717477 -0.48468054839020536
  outer loop
   vertex 94.29193896833603 128.6963606479489 50 
   vertex 120.1738434785881 125.28894327685572 50 
   vertex 125.88190451025207 96.59258262890683 0 
  endloop 
 endfacet 
 facet normal 0.34411350163288473 0.8307634826378075 -0.4375133528356088
  outer loop
   vertex 120.1738434785881 125.28894327685572 50 
   vertex 144.291938968336 115.29890102639277 50 
   vertex 150 86.60254037844388 0 
  endloop 
 endfacet 
 facet normal 0.5679533300077725 0.7401711902557833 -0.35996614291960777
  outer loop
   vertex 144.291938968336 115.29890102639277 50 
   vertex 165.00261708699077 99.40703876660365 50 
   vertex 170.71067811865476 70.71067811865476 0 
  endloop 
 endfacet 
 facet normal 0.7680464778817192 0.589342790500829 -0.25055874181153953
  outer loop
   vertex 165.00261708699077 99.40703876660365 50 
   vertex 180.8944793467799 78.6963606479489 50 
   vertex 186.60254037844385 50.000000000000014 0 
  endloop 
 endfacet 
 facet normal 0.9179173858244053 0.3802138303465252 -0.11342449477301546
  outer loop
   vertex 180.8944793467799 78.6963606479489 50 
   vertex 190.88452159724284 54.57826515820098 50 
   vertex 196.59258262890683 25.881904510252095 0 
  endloop 
 endfacet 
 facet normal 0.9907195498069699 0.1304307031407481 0.03824402317336774
  outer loop
   vertex 190.88452159724284 54.57826515820098 50 
   vertex 194.291938968336 28.696360647948893 50 
   vertex 200 6.123233995736766e-15 0 
  endloop 
 endfacet 
 facet normal 0.9743580382598872 -0.12827666928126874 0.18485537426985515
  outer loop
   vertex 194.291938968336 28.696360647948893 50 
   vertex 190.88452159724287 2.814456137696844 50 
   vertex 196.59258262890683 -25.881904510252042 0 
  endloop 
 endfacet 
 facet normal 0.8786141370505858 -0.3639338916590851 0.30917522649256335
  outer loop
   vertex 190.88452159724287 2.814456137696844 50 
   vertex 180.89447934677992 -21.303639352051093 50 
   vertex 186.60254037844388 -49.99999999999998 0 
  endloop 
 endfacet 
 facet normal 0.7261803012199336 -0.5572177432647468 0.4027040559903377
  outer loop
   vertex 180.89447934677992 -21.303639352051093 50 
   vertex 165.00261708699077 -42.014317470705855 50 
   vertex 170.71067811865476 -70.71067811865474 0 
  endloop 
 endfacet 
 facet normal 0.539035128215649 -0.7024842559433447 0.46471173936243965
  outer loop
   vertex 165.00261708699077 -42.014317470705855 50 
   vertex 144.29193896833607 -57.90617973049496 50 
   vertex 150.00000000000003 -86.60254037844385 0 
  endloop 
 endfacet 
 facet normal 0.3319044362840047 -0.801288191488641 0.497771714097798
  outer loop
   vertex 144.29193896833607 -57.90617973049496 50 
   vertex 120.17384347858813 -67.89622198095793 50 
   vertex 125.8819045102521 -96.59258262890683 0 
  endloop 
 endfacet 
 facet normal 0.11271706685404886 -0.8561711241309568 0.5042478250266963
  outer loop
   vertex 120.17384347858813 -67.89622198095793 50 
   vertex 94.29193896833604 -71.3036393520511 50 
   vertex 100.00000000000001 -100 0 
  endloop 
 endfacet 
 facet normal -0.11417011697612889 -0.8672081355717478 0.48468054839020525
  outer loop
   vertex 94.29193896833604 -71.3036393520511 50 
   vertex 68.410034458084 -67.89622198095796 50 
   vertex 74.11809548974796 -96.59258262890684 0 
  endloop 
 endfacet 
 facet normal -0.3441135016328846 -0.8307634826378075 0.4375133528356088
  outer loop
   vertex 68.410034458084 -67.89622198095796 50 
   vertex 44.29193896833609 -57.90617973049502 50 
   vertex 50.000000000000064 -86.6025403784439 0 
  endloop 
 endfacet 
 facet normal -0.5679533300077718 -0.7401711902557836 0.35996614291960805
  outer loop
   vertex 44.29193896833609 -57.90617973049502 50 
   vertex 23.581260849681286 -42.01431747070588 50 
   vertex 29.28932188134526 -70.71067811865477 0 
  endloop 
 endfacet 
 facet normal -0.7680464778817193 -0.5893427905008289 0.25055874181153925
  outer loop
   vertex 23.581260849681286 -42.01431747070588 50 
   vertex 7.689398589892193 -21.303639352051157 50 
   vertex 13.397459621556166 -50.00000000000004 0 
  endloop 
 endfacet 
 facet normal -0.9179173858244045 -0.3802138303465264 0.11342449477301651
  outer loop
   vertex 7.689398589892193 -21.303639352051157 50 
   vertex -2.3006436605707847 2.814456137696734 50 
   vertex 3.4074173710931888 -25.881904510252152 0 
  endloop 
 endfacet 
 facet normal -0.9907195498069699 -0.1304307031407484 -0.03824402317336729
  outer loop
   vertex -2.3006436605707847 2.814456137696734 50 
   vertex -5.7080610316639735 28.696360647948868 50 
   vertex 0 -1.8369701987210297e-14 0 
  endloop 
 endfacet 
 facet normal -0.974358038259887 0.12827666928126927 -0.18485537426985568
  outer loop
   vertex -5.7080610316639735 28.696360647948868 50 
   vertex -2.300643660570813 54.578265158200914 50 
   vertex 3.4074173710931603 25.881904510252028 0 
  endloop 
 endfacet 
 facet normal -0.8786141370505858 0.363933891659085 -0.3091752264925636
  outer loop
   vertex -2.300643660570813 54.578265158200914 50 
   vertex 7.6893985898921215 78.69636064794882 50 
   vertex 13.397459621556095 49.999999999999936 0 
  endloop 
 endfacet 
 facet normal -0.7261803012199345 0.5572177432647462 -0.40270405599033715
  outer loop
   vertex 7.6893985898921215 78.69636064794882 50 
   vertex 23.581260849681257 99.40703876660362 50 
   vertex 29.28932188134523 70.71067811865474 0 
  endloop 
 endfacet 
 facet normal -0.5390351282156481 0.7024842559433453 -0.4647117393624399
  outer loop
   vertex 23.581260849681257 99.40703876660362 50 
   vertex 44.291938968335984 115.29890102639271 50 
   vertex 49.99999999999996 86.60254037844383 0 
  endloop 
 endfacet 
 facet normal -0.33190443628400557 0.8012881914886408 -0.4977717140977978
  outer loop
   vertex 44.291938968335984 115.29890102639271 50 
   vertex 68.41003445808387 125.28894327685569 50 
   vertex 74.11809548974784 96.59258262890681 0 
  endloop 
 endfacet 
 facet normal -0.11462400051044783 0.8706557232942458 -0.4783512830566619
  outer loop
   vertex 55.667411174639525 151.08209330648873 100 
   vertex 81.54931568489168 154.4895106775819 100 
   vertex 94.29193896833603 128.6963606479489 50 
  endloop 
 endfacet 
 facet normal 0.11775563121420167 0.8944428200918174 -0.43139964406979037
  outer loop
   vertex 81.54931568489168 154.4895106775819 100 
   vertex 107.43122019514375 151.08209330648873 100 
   vertex 120.1738434785881 125.28894327685572 50 
  endloop 
 endfacet 
 facet normal 0.35783687603474595 0.8638946392403046 -0.3544556706297104
  outer loop
   vertex 107.43122019514375 151.08209330648873 100 
   vertex 131.54931568489167 141.09205105602578 100 
   vertex 144.291938968336 115.29890102639277 50 
  endloop 
 endfacet 
 facet normal 0.5900093242932253 0.768915121631826 -0.24628953078230173
  outer loop
   vertex 131.54931568489167 141.09205105602578 100 
   vertex 152.25999380354642 125.20018879623666 100 
   vertex 165.00261708699077 99.40703876660365 50 
  endloop 
 endfacet 
 facet normal 0.7884368790257931 0.6049888955943945 -0.11115630436255887
  outer loop
   vertex 152.25999380354642 125.20018879623666 100 
   vertex 168.15185606333554 104.48951067758192 100 
   vertex 180.8944793467799 78.6963606479489 50 
  endloop 
 endfacet 
 facet normal 0.9232117846193594 0.382406842132007 0.038013258615436175
  outer loop
   vertex 168.15185606333554 104.48951067758192 100 
   vertex 178.1418983137985 80.371415187834 100 
   vertex 190.88452159724284 54.57826515820098 50 
  endloop 
 endfacet 
 facet normal 0.9748431147162342 0.12834053080826852 0.18223504010536168
  outer loop
   vertex 178.1418983137985 80.371415187834 100 
   vertex 181.54931568489167 54.48951067758191 100 
   vertex 194.291938968336 28.696360647948893 50 
  endloop 
 endfacet 
 facet normal 0.9442744366123725 -0.12431608798794917 0.30478073861016686
  outer loop
   vertex 181.54931568489167 54.48951067758191 100 
   vertex 178.14189831379852 28.607606167329863 100 
   vertex 190.88452159724287 2.814456137696844 50 
  endloop 
 endfacet 
 facet normal 0.8478555994031092 -0.3511932882067369 0.39724571348138465
  outer loop
   vertex 178.14189831379852 28.607606167329863 100 
   vertex 168.15185606333557 4.489510677581926 100 
   vertex 180.89447934677992 -21.303639352051093 50 
  endloop 
 endfacet 
 facet normal 0.7049624328917278 -0.5409367002691303 0.45871064355792013
  outer loop
   vertex 168.15185606333557 4.489510677581926 100 
   vertex 152.25999380354642 -16.221167441072836 100 
   vertex 165.00261708699077 -42.014317470705855 50 
  endloop 
 endfacet 
 facet normal 0.530149246280183 -0.6909039491449741 0.49152162691425183
  outer loop
   vertex 152.25999380354642 -16.221167441072836 100 
   vertex 131.54931568489172 -32.113029700861944 100 
   vertex 144.29193896833607 -57.90617973049496 50 
  endloop 
 endfacet 
 facet normal 0.3318763686236917 -0.8012204301624487 0.497899486080727
  outer loop
   vertex 131.54931568489172 -32.113029700861944 100 
   vertex 107.43122019514378 -42.10307195132492 100 
   vertex 120.17384347858813 -67.89622198095793 50 
  endloop 
 endfacet 
 facet normal 0.11462400051044815 -0.8706557232942457 0.478351283056662
  outer loop
   vertex 107.43122019514378 -42.10307195132492 100 
   vertex 81.5493156848917 -45.510489322418096 100 
   vertex 94.29193896833604 -71.3036393520511 50 
  endloop 
 endfacet 
 facet normal -0.11775563121420125 -0.8944428200918172 0.43139964406979076
  outer loop
   vertex 81.5493156848917 -45.510489322418096 100 
   vertex 55.667411174639646 -42.103071951324935 100 
   vertex 68.410034458084 -67.89622198095796 50 
  endloop 
 endfacet 
 facet normal -0.3578368760347456 -0.8638946392403046 0.3544556706297106
  outer loop
   vertex 55.667411174639646 -42.103071951324935 100 
   vertex 31.549315684891745 -32.113029700862 100 
   vertex 44.29193896833609 -57.90617973049502 50 
  endloop 
 endfacet 
 facet normal -0.5900093242932245 -0.7689151216318262 0.24628953078230215
  outer loop
   vertex 31.549315684891745 -32.113029700862 100 
   vertex 10.83863756623694 -16.221167441072865 100 
   vertex 23.581260849681286 -42.01431747070588 50 
  endloop 
 endfacet 
 facet normal -0.7884368790257934 -0.604988895594394 0.11115630436255847
  outer loop
   vertex 10.83863756623694 -16.221167441072865 100 
   vertex -5.053224693552153 4.489510677581862 100 
   vertex 7.689398589892193 -21.303639352051157 50 
  endloop 
 endfacet 
 facet normal -0.9232117846193588 -0.38240684213200826 -0.03801325861543541
  outer loop
   vertex -5.053224693552153 4.489510677581862 100 
   vertex -15.04326694401513 28.607606167329752 100 
   vertex -2.3006436605707847 2.814456137696734 50 
  endloop 
 endfacet 
 facet normal -0.9748431147162342 -0.12834053080826888 -0.18223504010536154
  outer loop
   vertex -15.04326694401513 28.607606167329752 100 
   vertex -18.45068431510832 54.48951067758188 100 
   vertex -5.7080610316639735 28.696360647948868 50 
  endloop 
 endfacet 
 facet normal -0.9442744366123724 0.12431608798794967 -0.304780738610167
  outer loop
   vertex -18.45068431510832 54.48951067758188 100 
   vertex -15.043266944015159 80.37141518783393 100 
   vertex -2.300643660570813 54.578265158200914 50 
  endloop 
 endfacet 
 facet normal -0.8478555994031092 0.35119328820673673 -0.3972457134813847
  outer loop
   vertex -15.043266944015159 80.37141518783393 100 
   vertex -5.053224693552224 104.48951067758185 100 
   vertex 7.6893985898921215 78.69636064794882 50 
  endloop 
 endfacet 
 facet normal -0.7049624328917283 0.5409367002691295 -0.45871064355792
  outer loop
   vertex -5.053224693552224 104.48951067758185 100 
   vertex 10.838637566236912 125.20018879623665 100 
   vertex 23.581260849681257 99.40703876660362 50 
  endloop 
 endfacet 
 facet normal -0.5301492462801823 0.6909039491449743 -0.49152162691425205
  outer loop
   vertex 10.838637566236912 125.20018879623665 100 
   vertex 31.54931568489164 141.09205105602575 100 
   vertex 44.291938968335984 115.29890102639271 50 
  endloop 
 endfacet 
 facet normal -0.33187636862369224 0.8012204301624484 -0.49789948608072737
  outer loop
   vertex 31.54931568489164 141.09205105602575 100 
   vertex 55.667411174639525 151.08209330648873 100 
   vertex 68.41003445808387 125.28894327685569 50 
  endloop 
 endfacet 
 facet normal -0.11773475557081593 0.8942842538377098 -0.43173394662524606
  outer loop
   vertex 36.71403859871248 172.72535333341233 150 
   vertex 62.59594310896463 176.13277070450553 150 
   vertex 81.54931568489168 154.4895106775819 100 
  endloop 
 endfacet 
 facet normal 0.12202655093128593 0.9268836760979791 -0.35495939465086834
  outer loop
   vertex 62.59594310896463 176.13277070450553 150 
   vertex 88.4778476192167 172.72535333341236 150 
   vertex 107.43122019514375 151.08209330648873 100 
  endloop 
 endfacet 
 facet normal 0.37083020109121617 0.8952633008119577 -0.2469586689669477
  outer loop
   vertex 88.4778476192167 172.72535333341236 150 
   vertex 112.59594310896463 162.7353110829494 150 
   vertex 131.54931568489167 141.09205105602578 100 
  endloop 
 endfacet 
 facet normal 0.6049349793216614 0.7883666139711578 -0.11194531150857819
  outer loop
   vertex 112.59594310896463 162.7353110829494 150 
   vertex 133.30662122761936 146.8434488231603 150 
   vertex 152.25999380354642 125.20018879623666 100 
  endloop 
 endfacet 
 facet normal 0.7928043008922561 0.6083401362604219 0.037197030814196536
  outer loop
   vertex 133.30662122761936 146.8434488231603 150 
   vertex 149.1984834874085 126.13277070450555 150 
   vertex 168.15185606333554 104.48951067758192 100 
  endloop 
 endfacet 
 facet normal 0.908535275178669 0.3763276328733763 0.18149701510477145
  outer loop
   vertex 149.1984834874085 126.13277070450555 150 
   vertex 159.18852573787146 102.01467521475763 150 
   vertex 178.1418983137985 80.371415187834 100 
  endloop 
 endfacet 
 facet normal 0.9444611141176488 0.12434066454776296 0.30419172089238444
  outer loop
   vertex 159.18852573787146 102.01467521475763 150 
   vertex 162.59594310896463 76.13277070450553 150 
   vertex 181.54931568489167 54.48951067758191 100 
  endloop 
 endfacet 
 facet normal 0.9100403473488574 -0.1198090846337776 0.3968278586949099
  outer loop
   vertex 162.59594310896463 76.13277070450553 150 
   vertex 159.1885257378715 50.25086619425349 150 
   vertex 178.14189831379852 28.607606167329863 100 
  endloop 
 endfacet 
 facet normal 0.821067442313615 -0.3400972702292884 0.4584562159630568
  outer loop
   vertex 159.1885257378715 50.25086619425349 150 
   vertex 149.1984834874085 26.132770704505553 150 
   vertex 168.15185606333557 4.489510677581926 100 
  endloop 
 endfacet 
 facet normal 0.6909512418627041 -0.5301855352588309 0.4914159944188773
  outer loop
   vertex 149.1984834874085 26.132770704505553 150 
   vertex 133.3066212276194 5.422092585850791 150 
   vertex 152.25999380354642 -16.221167441072836 100 
  endloop 
 endfacet 
 facet normal 0.5279268405847137 -0.6880076536538928 0.4979344530195789
  outer loop
   vertex 133.3066212276194 5.422092585850791 150 
   vertex 112.59594310896466 -10.469769673938316 150 
   vertex 131.54931568489172 -32.113029700861944 100 
  endloop 
 endfacet 
 facet normal 0.3360233656884165 -0.8112321667192284 0.47852969541236917
  outer loop
   vertex 112.59594310896466 -10.469769673938316 150 
   vertex 88.47784761921673 -20.459811924401293 150 
   vertex 107.43122019514378 -42.10307195132492 100 
  endloop 
 endfacet 
 facet normal 0.1177347555708153 -0.89428425383771 0.4317339466252459
  outer loop
   vertex 88.47784761921673 -20.459811924401293 150 
   vertex 62.59594310896465 -23.867229295494468 150 
   vertex 81.5493156848917 -45.510489322418096 100 
  endloop 
 endfacet 
 facet normal -0.12202655093128555 -0.9268836760979792 0.35495939465086856
  outer loop
   vertex 62.59594310896465 -23.867229295494468 150 
   vertex 36.7140385987126 -20.459811924401308 150 
   vertex 55.667411174639646 -42.103071951324935 100 
  endloop 
 endfacet 
 facet normal -0.370830201091216 -0.8952633008119576 0.24695866896694754
  outer loop
   vertex 36.7140385987126 -20.459811924401308 150 
   vertex 12.595943108964697 -10.469769673938373 150 
   vertex 31.549315684891745 -32.113029700862 100 
  endloop 
 endfacet 
 facet normal -0.6049349793216603 -0.7883666139711586 0.11194531150857907
  outer loop
   vertex 12.595943108964697 -10.469769673938373 150 
   vertex -8.114735009690108 5.422092585850763 150 
   vertex 10.83863756623694 -16.221167441072865 100 
  endloop 
 endfacet 
 facet normal -0.792804300892257 -0.6083401362604208 -0.037197030814197514
  outer loop
   vertex -8.114735009690108 5.422092585850763 150 
   vertex -24.0065972694792 26.13277070450549 150 
   vertex -5.053224693552153 4.489510677581862 100 
  endloop 
 endfacet 
 facet normal -0.9085352751786685 -0.3763276328733775 -0.18149701510477095
  outer loop
   vertex -24.0065972694792 26.13277070450549 150 
   vertex -33.99663951994218 50.250866194253376 150 
   vertex -15.04326694401513 28.607606167329752 100 
  endloop 
 endfacet 
 facet normal -0.9444611141176487 -0.12434066454776325 -0.30419172089238444
  outer loop
   vertex -33.99663951994218 50.250866194253376 150 
   vertex -37.40405689103537 76.13277070450552 150 
   vertex -18.45068431510832 54.48951067758188 100 
  endloop 
 endfacet 
 facet normal -0.9100403473488572 0.11980908463377808 -0.3968278586949102
  outer loop
   vertex -37.40405689103537 76.13277070450552 150 
   vertex -33.99663951994221 102.01467521475756 150 
   vertex -15.043266944015159 80.37141518783393 100 
  endloop 
 endfacet 
 facet normal -0.8210674423136155 0.3400972702292875 -0.4584562159630565
  outer loop
   vertex -33.99663951994221 102.01467521475756 150 
   vertex -24.006597269479272 126.13277070450548 150 
   vertex -5.053224693552224 104.48951067758185 100 
  endloop 
 endfacet 
 facet normal -0.6909512418627041 0.5301855352588308 -0.4914159944188773
  outer loop
   vertex -24.006597269479272 126.13277070450548 150 
   vertex -8.114735009690136 146.84344882316026 150 
   vertex 10.838637566236912 125.20018879623665 100 
  endloop 
 endfacet 
 facet normal -0.5279268405847136 0.6880076536538933 -0.4979344530195785
  outer loop
   vertex -8.114735009690136 146.84344882316026 150 
   vertex 12.59594310896459 162.73531108294935 150 
   vertex 31.54931568489164 141.09205105602575 100 
  endloop 
 endfacet 
 facet normal -0.33602336568841706 0.8112321667192284 -0.4785296954123689
  outer loop
   vertex 12.59594310896459 162.73531108294935 150 
   vertex 36.71403859871248 172.72535333341233 150 
   vertex 55.667411174639525 151.08209330648873 100 
  endloop 
 endfacet 
 facet normal -0.12177641682280656 0.9249837189147594 -0.3599661429196079
  outer loop
   vertex 12.386438726256827 188.9805358800355 200 
   vertex 38.26834323650898 192.3879532511287 200 
   vertex 62.59594310896463 176.13277070450553 150 
  endloop 
 endfacet 
 facet normal 0.12636258917006868 0.9598191563831465 -0.2505587418115392
  outer loop
   vertex 38.26834323650898 192.3879532511287 200 
   vertex 64.15024774676105 188.98053588003552 200 
   vertex 88.4778476192167 172.72535333341236 150 
  endloop 
 endfacet 
 facet normal 0.38021383034652606 0.9179173858244047 -0.11342449477301537
  outer loop
   vertex 64.15024774676105 188.98053588003552 200 
   vertex 88.26834323650897 178.99049362957254 200 
   vertex 112.59594310896463 162.7353110829494 150 
  endloop 
 endfacet 
 facet normal 0 0 1
  outer loop
   vertex 88.26834323650897 178.99049362957254 200 
   vertex 64.15024774676105 188.98053588003552 200 
   vertex 38.26834323650898 192.3879532511287 200 
  endloop 
 endfacet 
 facet normal 0.608316077256839 0.7927729465883447 0.03824402317336627
  outer loop
   vertex 88.26834323650897 178.99049362957254 200 
   vertex 108.97902135516372 163.09863136978345 200 
   vertex 133.30662122761936 146.8434488231603 150 
  endloop 
 endfacet 
 facet normal 0 0 1
  outer loop
   vertex 108.97902135516372 163.09863136978345 200 
   vertex 88.26834323650897 178.99049362957254 200 
   vertex 38.26834323650898 192.3879532511287 200 
  endloop 
 endfacet 
 facet normal 0.7796804788739973 0.5982698734403781 0.18485537426985513
  outer loop
   vertex 108.97902135516372 163.09863136978345 200 
   vertex 124.87088361495285 142.3879532511287 200 
   vertex 149.1984834874085 126.13277070450555 150 
  endloop 
 endfacet 
 facet normal 0 0 1
  outer loop
   vertex 124.87088361495285 142.3879532511287 200 
   vertex 108.97902135516372 163.09863136978345 200 
   vertex 38.26834323650898 192.3879532511287 200 
  endloop 
 endfacet 
 facet normal 0.8786141370505854 0.36393389165908635 0.3091752264925624
  outer loop
   vertex 124.87088361495285 142.3879532511287 200 
   vertex 134.86092586541582 118.26985776138078 200 
   vertex 159.18852573787146 102.01467521475763 150 
  endloop 
 endfacet 
 facet normal 0 0 1
  outer loop
   vertex 134.86092586541582 118.26985776138078 200 
   vertex 124.87088361495285 142.3879532511287 200 
   vertex 38.26834323650898 192.3879532511287 200 
  endloop 
 endfacet 
 facet normal 0.9074994602166726 0.11947457049673854 0.40270405599033604
  outer loop
   vertex 134.86092586541582 118.26985776138078 200 
   vertex 138.268343236509 92.38795325112868 200 
   vertex 162.59594310896463 76.13277070450553 150 
  endloop 
 endfacet 
 facet normal 0 0 1
  outer loop
   vertex 138.268343236509 92.38795325112868 200 
   vertex 134.86092586541582 118.26985776138078 200 
   vertex 38.26834323650898 192.3879532511287 200 
  endloop 
 endfacet 
 facet normal 0.8778867755133709 -0.11557598659528105 0.4647117393624392
  outer loop
   vertex 138.268343236509 92.38795325112868 200 
   vertex 134.86092586541582 66.50604874087664 200 
   vertex 159.1885257378715 50.25086619425349 150 
  endloop 
 endfacet 
 facet normal 0 0 1
  outer loop
   vertex 134.86092586541582 66.50604874087664 200 
   vertex 138.268343236509 92.38795325112868 200 
   vertex 38.26834323650898 192.3879532511287 200 
  endloop 
 endfacet 
 facet normal 0.8012881914886417 -0.33190443628400484 0.49777171409779697
  outer loop
   vertex 134.86092586541582 66.50604874087664 200 
   vertex 124.87088361495286 42.3879532511287 200 
   vertex 149.1984834874085 26.132770704505553 150 
  endloop 
 endfacet 
 facet normal 0 0 1
  outer loop
   vertex 124.87088361495286 42.3879532511287 200 
   vertex 134.86092586541582 66.50604874087664 200 
   vertex 38.26834323650898 192.3879532511287 200 
  endloop 
 endfacet 
 facet normal 0.6851074100570647 -0.525701405401154 0.5042478250266953
  outer loop
   vertex 124.87088361495286 42.3879532511287 200 
   vertex 108.97902135516374 21.677275132473937 200 
   vertex 133.3066212276194 5.422092585850791 150 
  endloop 
 endfacet 
 facet normal 0 0 1
  outer loop
   vertex 108.97902135516374 21.677275132473937 200 
   vertex 124.87088361495286 42.3879532511287 200 
   vertex 38.26834323650898 192.3879532511287 200 
  endloop 
 endfacet 
 facet normal 0.5324782894402439 -0.6939392172856083 0.4846805483902044
  outer loop
   vertex 108.97902135516374 21.677275132473937 200 
   vertex 88.26834323650903 5.78541287268483 200 
   vertex 112.59594310896466 -10.469769673938316 150 
  endloop 
 endfacet 
 facet normal 0 0 1
  outer loop
   vertex 88.26834323650903 5.78541287268483 200 
   vertex 108.97902135516374 21.677275132473937 200 
   vertex 38.26834323650898 192.3879532511287 200 
  endloop 
 endfacet 
 facet normal 0.3441135016328854 -0.8307634826378077 0.4375133528356081
  outer loop
   vertex 88.26834323650903 5.78541287268483 200 
   vertex 64.15024774676108 -4.204629377778147 200 
   vertex 88.47784761921673 -20.459811924401293 150 
  endloop 
 endfacet 
 facet normal 0 0 1
  outer loop
   vertex 64.15024774676108 -4.204629377778147 200 
   vertex 88.26834323650903 5.78541287268483 200 
   vertex 38.26834323650898 192.3879532511287 200 
  endloop 
 endfacet 
 facet normal 0.12177641682280592 -0.9249837189147596 0.35996614291960743
  outer loop
   vertex 64.15024774676108 -4.204629377778147 200 
   vertex 38.268343236509 -7.612046748871322 200 
   vertex 62.59594310896465 -23.867229295494468 150 
  endloop 
 endfacet 
 facet normal 0 0 1
  outer loop
   vertex 38.268343236509 -7.612046748871322 200 
   vertex 64.15024774676108 -4.204629377778147 200 
   vertex 38.26834323650898 192.3879532511287 200 
  endloop 
 endfacet 
 facet normal -0.12636258917006823 -0.9598191563831465 0.25055874181153914
  outer loop
   vertex 38.268343236509 -7.612046748871322 200 
   vertex 12.386438726256948 -4.204629377778161 200 
   vertex 36.7140385987126 -20.459811924401308 150 
  endloop 
 endfacet 
 facet normal 0 0 1
  outer loop
   vertex 12.386438726256948 -4.204629377778161 200 
   vertex 38.268343236509 -7.612046748871322 200 
   vertex 38.26834323650898 192.3879532511287 200 
  endloop 
 endfacet 
 facet normal -0.38021383034652484 -0.9179173858244052 0.11342449477301647
  outer loop
   vertex 12.386438726256948 -4.204629377778161 200 
   vertex -11.731656763490953 5.785412872684773 200 
   vertex 12.595943108964697 -10.469769673938373 150 
  endloop 
 endfacet 
 facet normal 0 0 1
  outer loop
   vertex -11.731656763490953 5.785412872684773 200 
   vertex 12.386438726256948 -4.204629377778161 200 
   vertex 38.26834323650898 192.3879532511287 200 
  endloop 
 endfacet 
 facet normal -0.608316077256839 -0.7927729465883446 -0.03824402317336673
  outer loop
   vertex -11.731656763490953 5.785412872684773 200 
   vertex -32.44233488214576 21.67727513247391 200 
   vertex -8.114735009690108 5.422092585850763 150 
  endloop 
 endfacet 
 facet normal 0 0 1
  outer loop
   vertex -32.44233488214576 21.67727513247391 200 
   vertex -11.731656763490953 5.785412872684773 200 
   vertex 38.26834323650898 192.3879532511287 200 
  endloop 
 endfacet 
 facet normal -0.7796804788739975 -0.5982698734403779 -0.184855374269855
  outer loop
   vertex -32.44233488214576 21.67727513247391 200 
   vertex -48.33419714193485 42.387953251128636 200 
   vertex -24.0065972694792 26.13277070450549 150 
  endloop 
 endfacet 
 facet normal 0 0 1
  outer loop
   vertex -48.33419714193485 42.387953251128636 200 
   vertex -32.44233488214576 21.67727513247391 200 
   vertex 38.26834323650898 192.3879532511287 200 
  endloop 
 endfacet 
 facet normal -0.8786141370505853 -0.36393389165908674 -0.30917522649256246
  outer loop
   vertex -48.33419714193485 42.387953251128636 200 
   vertex -58.32423939239783 66.50604874087652 200 
   vertex -33.99663951994218 50.250866194253376 150 
  endloop 
 endfacet 
 facet normal 0 0 1
  outer loop
   vertex -58.32423939239783 66.50604874087652 200 
   vertex -48.33419714193485 42.387953251128636 200 
   vertex 38.26834323650898 192.3879532511287 200 
  endloop 
 endfacet 
 facet normal -0.9074994602166726 -0.11947457049673883 -0.4027040559903362
  outer loop
   vertex -58.32423939239783 66.50604874087652 200 
   vertex -61.73165676349102 92.38795325112866 200 
   vertex -37.40405689103537 76.13277070450552 150 
  endloop 
 endfacet 
 facet normal 0 0 1
  outer loop
   vertex -61.73165676349102 92.38795325112866 200 
   vertex -58.32423939239783 66.50604874087652 200 
   vertex 38.26834323650898 192.3879532511287 200 
  endloop 
 endfacet 
 facet normal -0.8778867755133712 0.11557598659528061 -0.46471173936243887
  outer loop
   vertex -61.73165676349102 92.38795325112866 200 
   vertex -58.32423939239786 118.2698577613807 200 
   vertex -33.99663951994221 102.01467521475756 150 
  endloop 
 endfacet 
 facet normal 0 0 1
  outer loop
   vertex -58.32423939239786 118.2698577613807 200 
   vertex -61.73165676349102 92.38795325112866 200 
   vertex 38.26834323650898 192.3879532511287 200 
  endloop 
 endfacet 
 facet normal -0.8012881914886419 0.3319044362840044 -0.4977717140977968
  outer loop
   vertex -58.32423939239786 118.2698577613807 200 
   vertex -48.33419714193492 142.3879532511286 200 
   vertex -24.006597269479272 126.13277070450548 150 
  endloop 
 endfacet 
 facet normal 0 0 1
  outer loop
   vertex -48.33419714193492 142.3879532511286 200 
   vertex -58.32423939239786 118.2698577613807 200 
   vertex 38.26834323650898 192.3879532511287 200 
  endloop 
 endfacet 
 facet normal -0.685107410057065 0.5257014054011534 -0.5042478250266954
  outer loop
   vertex -48.33419714193492 142.3879532511286 200 
   vertex -32.442334882145786 163.09863136978342 200 
   vertex -8.114735009690136 146.84344882316026 150 
  endloop 
 endfacet 
 facet normal 0 0 1
  outer loop
   vertex -32.442334882145786 163.09863136978342 200 
   vertex -48.33419714193492 142.3879532511286 200 
   vertex 38.26834323650898 192.3879532511287 200 
  endloop 
 endfacet 
 facet normal -0.5324782894402432 0.6939392172856085 -0.4846805483902045
  outer loop
   vertex -32.442334882145786 163.09863136978342 200 
   vertex -11.73165676349106 178.9904936295725 200 
   vertex 12.59594310896459 162.73531108294935 150 
  endloop 
 endfacet 
 facet normal 0 0 1
  outer loop
   vertex -11.73165676349106 178.9904936295725 200 
   vertex -32.442334882145786 163.09863136978342 200 
   vertex 38.26834323650898 192.3879532511287 200 
  endloop 
 endfacet 
 facet normal -0.34411350163288595 0.8307634826378071 -0.4375133528356084
  outer loop
   vertex -11.73165676349106 178.9904936295725 200 
   vertex 12.386438726256827 188.9805358800355 200 
   vertex 36.71403859871248 172.72535333341233 150 
  endloop 
 endfacet 
 facet normal 0 0 1
  outer loop
   vertex 12.386438726256827 188.9805358800355 200 
   vertex -11.73165676349106 178.9904936295725 200 
   vertex 38.26834323650898 192.3879532511287 200 
  endloop 
 endfacet 
endsolid